<?xml version="1.0" standalone="no"?>
<!DOCTYPE svg PUBLIC "-//W3C//DTD SVG 20010904//EN"
 "http://www.w3.org/TR/2001/REC-SVG-20010904/DTD/svg10.dtd">
<svg version="1.0" xmlns="http://www.w3.org/2000/svg"
 width="200.000000pt" height="200.000000pt" viewBox="0 0 200.000000 200.000000"
 preserveAspectRatio="xMidYMid meet">
<metadata>
Created by potrace 1.14, written by Peter Selinger 2001-2017
</metadata>
<g transform="translate(0.000000,200.000000) scale(0.100000,-0.100000)"
fill="#000000" stroke="none">
<path d="M1030 1208 c-28 -56 -50 -107 -50 -114 0 -7 -13 -41 -28 -76 -42 -93
-72 -192 -72 -237 0 -71 30 -118 47 -73 4 9 12 22 19 27 6 6 14 38 17 72 4 51
19 92 85 230 107 223 125 288 72 255 -17 -10 -20 -10 -20 3 0 37 -24 7 -70
-87z"/>
<path d="M688 1171 c-91 -29 -116 -49 -265 -206 -7 -8 -13 -16 -13 -19 0 -7
157 -56 178 -55 14 0 14 2 -3 10 -17 8 -17 9 5 4 14 -2 30 -5 35 -5 6 0 4 -4
-4 -9 -11 -7 -7 -13 20 -24 19 -7 48 -17 64 -21 29 -6 29 -6 10 10 -20 17 -16
17 30 -2 17 -7 33 24 18 35 -5 3 -12 13 -15 22 -4 10 -42 27 -98 45 l-92 28
33 28 c43 35 102 65 154 78 22 5 47 15 55 20 13 9 12 13 -9 30 -18 15 -19 20
-7 20 9 0 16 7 16 15 0 20 -40 19 -112 -4z m-131 -257 c-3 -3 -12 -4 -19 -1
-8 3 -5 6 6 6 11 1 17 -2 13 -5z m123 -34 c18 -12 2 -12 -25 0 -13 6 -15 9 -5
9 8 0 22 -4 30 -9z"/>
<path d="M1224 1179 c-4 -7 4 -20 17 -30 21 -16 21 -19 6 -19 -10 0 -17 -5
-15 -12 2 -6 44 -20 94 -30 49 -10 96 -21 104 -23 8 -2 22 -4 30 -5 8 0 -10
-10 -40 -21 -105 -39 -130 -52 -160 -87 -31 -36 -31 -52 0 -52 10 0 20 -5 22
-11 2 -7 23 1 52 20 27 17 74 38 105 47 65 18 171 64 171 73 0 17 -67 84 -102
102 -87 45 -267 75 -284 48z"/>
</g>
</svg>
